Patient5_TMGait_0pt45_1_right_06_EMG.mot
version=1
nRows=16
nColumns=33
inDegrees=no
endheader
time	1LAddLong	2LGlutMax	3LGlutMed	4LIliopsoas	5LSemiMemb	6LBicFemLong	7LRecFem	8LTensFascLat	9LVastMed	10LVasLat	11LGasMed	12lGasLat	13LTibAnt	14LPeroneusLong	15LSol	16LTibPost	17RAddLong	18RGlutMax	19RGlutMed	20RIliopsoas	21RSemiMemb	22RBicFemLong	23RRecFem	24RTensFascLat	25RVastMed	26RVasLat	27RGasMed	28RGasLat	29RTibAnt	30RPeroneusLong	31RSol	32RTibPost
10.72	0.018921	-0.014343	0.065155	-0.012817	-0.043182	-0.036621	0.009613	0.13214	-0.084686	-0.030212	-0.052338	0.065155	0.046844	0.080566	-0.006714	0.037842	0.024261	-0.00351	0.066681	-0.020294	0.073853	0.008392	-0.012207	-0.069427	-0.081177	-0.015259	-0.002899	-0.030212	0.000153	0.022583	-0.00885	0.033875
10.721	0.040131	-0.007019	-0.060883	-0.010681	-0.03067	-0.005646	0.004578	-0.088501	-0.11566	-0.013885	-0.052795	0.032501	0.056915	0.1358	0.014191	-0.042572	0.029297	-0.008392	0.11078	0.000305	0.073547	-0.00061	-0.010681	-0.033417	-0.083923	-0.020142	0.000763	-0.04837	0.013275	0.011902	-0.006409	0.011902
10.722	0.030212	0.002594	-0.12375	-0.016327	-0.31158	0.00412	0.014954	-0.16479	-0.13336	0.026093	-0.0914	0.031433	0.029297	0.2507	0.028687	0.001526	0.027771	-0.012512	0.13977	0.072327	0.075378	-0.010376	-0.012207	-0.030823	-0.085907	-0.019226	-0.007935	-0.058594	0.015717	0.001984	-0.011139	-0.013733
10.723	0.025024	0.032043	-0.18524	-0.041199	-0.24216	-0.003052	0.026703	-0.24017	-0.10773	0.037231	-0.10574	0.076447	0.003357	0.31448	0.037842	-0.018158	0.023651	-0.013123	0.03952	-0.05249	0.070953	-0.001068	-0.015564	-0.061188	-0.098114	-0.024109	-0.007172	-0.038147	0.005035	-0.00473	-0.009003	0.000305
10.724	0.025482	0.033569	-0.12787	-0.030365	-0.10574	-0.012207	0.031586	-0.067596	-0.082245	0.019226	-0.017242	0.043182	0.003815	0.20325	0.013123	-0.12009	0.026855	-0.007324	-0.056915	-0.038452	0.073242	0.001526	-0.013428	-0.053864	-0.10391	-0.021057	-0.02121	-0.005341	-0.003662	-0.003967	-0.015717	-0.005341
10.725	-0.007935	0.031281	-0.017548	0.031891	-0.11688	-0.003052	0.030518	0.1654	-0.063629	0.010376	0.081482	0.023651	-0.016327	0.14771	0.014801	-0.032501	0.022278	-0.005035	-0.035095	0.016022	0.10681	-0.001678	-0.015411	-0.05661	-0.10117	-0.016327	-0.006714	0.007019	-0.009003	-0.00351	-0.007782	-0.011597
10.726	0.004272	-0.012817	0.112	-0.047302	-0.13336	-0.013275	0.02121	0.16007	-0.02594	0.012207	0.099945	-0.043945	-0.034027	-0.006561	-0.007324	0.20126	0.023804	-0.000763	-0.040436	0.00946	0.08316	-0.013733	-0.016937	-0.026093	-0.11917	-0.022888	0.008698	-0.000153	-0.01358	-0.002441	0.001678	-0.011139
10.727	-0.006866	-0.050812	0.06424	-0.06897	-0.036163	-0.027771	0.024567	0.071259	0.003967	0.022888	0.063629	-0.10941	-0.010223	-0.11688	-0.018005	0.052795	0.021667	-0.002899	-0.004425	0.010834	0.089874	-0.005493	-0.012054	-0.041809	-0.12253	-0.018005	0.011444	0.020294	-0.009918	-0.001678	-0.00061	-0.018768
10.728	-0.009918	-0.059662	-0.005951	-0.053253	0.021362	-0.047607	0.020294	0.054626	0.028076	0.020142	0.030975	-0.073395	-0.001678	-0.009613	-0.012512	0.071106	0.018311	-0.005188	0.015869	0.039825	0.045013	0.000916	-0.01297	-0.085907	-0.14694	-0.010681	0.004272	0.024567	-0.007172	-0.003662	-0.00351	-0.026398
10.729	-0.005493	-0.051575	-0.065308	-0.035095	-0.000763	-0.023499	0.02243	-0.037689	0.036469	0.024261	0.016785	-0.02121	-0.007629	0.006561	-0.010223	0.082855	0.013275	-0.009155	-0.004425	-0.014496	0.04364	0.001831	-0.01358	-0.087738	-0.16312	-0.012207	-0.009918	0.027008	-0.006714	-0.006561	-0.002289	-0.029602
10.73	-0.02655	-0.04776	-0.086365	-0.005646	0.00824	-0.002441	0.015869	-0.088501	0.031891	-0.008392	0.016785	-0.030518	-0.027313	-0.030518	-0.035858	-0.015259	0.012665	-0.00412	-0.078583	-0.071564	0.042114	-0.001984	-0.013885	-0.063171	-0.16556	-0.020752	-0.007477	0.004425	-0.002441	-0.00473	-0.018158	-0.032654
10.731	-0.039825	-0.032349	0.028076	0.13748	-0.038757	0.003052	0.020447	0.03418	0.013428	0.000763	-0.0354	-0.072021	-0.018768	-0.036621	-0.033722	0.079041	0.02121	-0.002289	-0.068817	-0.062866	0.048523	0.004883	-0.016174	-0.035248	-0.15823	-0.022583	-0.002747	-0.011292	0.000458	-0.007935	-0.017395	-0.022736
10.732	-0.045166	-0.016785	0.21851	0.085602	-0.077972	0.018616	0.014801	0.41153	0.011444	-0.007629	-0.055389	-0.06485	-0.036621	-0.022125	-0.021057	0.026855	0.012207	-0.000153	-0.11505	-0.013428	0.057831	0.004883	-0.016022	-0.007477	-0.15243	-0.029144	-0.006104	-0.016174	-0.002899	-0.002441	-0.008545	-0.013428
10.733	-0.059204	0.006409	0.30197	-0.003662	-0.094757	0.045319	0.019836	0.44769	0.008087	-0.030518	-0.12543	-0.042725	-0.054474	0.032196	-0.016022	0.051422	0.014343	-0.001373	-0.15305	-0.081787	0.06134	-0.002594	-0.016327	0.016327	-0.1387	-0.029297	-0.000458	-0.005188	-0.00412	-0.003662	0.004578	-0.019684
10.734	-0.075684	0.027161	0.20935	0.010681	-0.007019	0.06073	0.01358	0.27283	0.014343	-0.033264	-0.27985	-0.044861	-0.047302	0.018158	-0.022278	-0.11124	0.01709	-0.000916	-0.11643	0.14832	0.056152	0.006256	-0.02121	0.024872	-0.12192	-0.016174	0.002594	-0.002747	-0.005646	-0.003815	-0.014801	-0.090332
10.735	-0.088196	0.041962	0.12207	-0.058594	0.094147	0.066376	0.007477	0.082397	0.003357	-0.011597	-0.22476	0.009918	-0.022125	-0.075684	-0.041199	-0.037994	0.016479	-0.001068	-0.080566	-0.037231	0.050812	-0.006104	-0.017548	0.002747	-0.10651	-0.006409	-0.000153	-0.002136	-0.003357	-0.003662	-0.019531	0.001984
